<svg xmlns="http://www.w3.org/2000/svg" viewBox="0 0 14.871 14.865"><defs><style>.a{fill:#7eb152;}</style></defs><path class="a" d="M1355.523,9865.085a4.6,4.6,0,0,1-1.05-.114l-.146-.019-.05-.006-.113-.013c-.117-.034-.237-.063-.339-.089l-.017,0a4.492,4.492,0,0,1-.649-.2l-.019-.008-.026-.012c-.45-.2-.915-.4-1.342-.639-.126-.07-.254-.156-.377-.239s-.248-.167-.37-.236a14.053,14.053,0,0,1-5.256-5.348c-.077-.139-.173-.283-.257-.41-.061-.093-.125-.19-.182-.283a4.672,4.672,0,0,1-.345-.738l-.023-.057c-.023-.058-.046-.115-.07-.173a5.683,5.683,0,0,1-.146-4.452,2.133,2.133,0,0,1,.5-.574l.032-.029c.062-.056.12-.108.175-.164.3-.3.548-.558.785-.8a1.592,1.592,0,0,1,.312-.184.422.422,0,0,1,.121-.026.273.273,0,0,0,.151-.048h.029a1.93,1.93,0,0,1,1.618.8l.013.015c.065.068.132.14.2.21l.319.319.239.239,1.029,1.031.013.013.06.059a1.593,1.593,0,0,1,.532.84,1.154,1.154,0,0,1,.037.476,1.88,1.88,0,0,1-.622.949l-.029.028-.061.062c-.188.2-.357.372-.53.548-.03.03-.077.071-.123.111-.152.133-.361.314-.387.438a.741.741,0,0,1,.113.185l0,0a1.108,1.108,0,0,0,.065.12c.082.123.176.244.267.361l.022.027c.05.064.1.131.15.2a2.99,2.99,0,0,0,.272.3l.007.006a3.079,3.079,0,0,1,.271.3,8.046,8.046,0,0,0,1.532,1.5.7.7,0,0,1,.112.111l.008.009a.731.731,0,0,0,.1.1l.113.084c.171.127.347.258.546.392.026.017.051.036.078.057l.008.006a.644.644,0,0,0,.314.155,2.351,2.351,0,0,1,.419-.437l.006,0,0,0c.075-.065.145-.128.21-.192s.157-.164.232-.245l.024-.026a2.38,2.38,0,0,1,1.185-.841.722.722,0,0,1,.176-.021,1.254,1.254,0,0,1,.52.13,3.917,3.917,0,0,1,1.139.956c.1.11.209.228.319.339l1.151,1.151c.045.046.094.089.146.135l.009.008a1.352,1.352,0,0,1,.375.438,2.81,2.81,0,0,1,.128.422l.018.071a1.561,1.561,0,0,1-.037.658,2.523,2.523,0,0,1-.747.911c-.087.078-.179.161-.258.24-.063.063-.126.13-.181.188a2.507,2.507,0,0,1-.693.577,3.658,3.658,0,0,1-.774.241l-.214.051A3.268,3.268,0,0,1,1355.523,9865.085Zm-8.589-14.061a.39.39,0,0,1-.109.056l-.009,0h0a.453.453,0,0,0-.1.05l-.5.514-.336.342c-.038.038-.08.075-.128.117a1.137,1.137,0,0,0-.311.359c-.74,1.662.088,3.789.693,4.783.557.912,1.094,1.713,1.641,2.446a1.627,1.627,0,0,0,.15.158l.009.008a1.434,1.434,0,0,1,.17.181,3.113,3.113,0,0,0,.567.6.4.4,0,0,1,.081.1.425.425,0,0,0,.082.1,4.552,4.552,0,0,1,.363.331l.008.009a4.128,4.128,0,0,0,.4.354c.118.089.235.182.349.271l.035.027c.182.145.37.295.565.432a20.073,20.073,0,0,0,1.953,1.168,6.353,6.353,0,0,0,2.882.845,3.407,3.407,0,0,0,.9-.114,2.259,2.259,0,0,1,.226-.049l.012,0,.008,0a1.419,1.419,0,0,0,.339-.093,1.539,1.539,0,0,0,.476-.38c.036-.039.072-.077.109-.113l.2-.194.179-.177.453-.444.045-.044a.332.332,0,0,0,.029-.054.249.249,0,0,1,.043-.072,1,1,0,0,0-.445-.924l-.015-.013c-.064-.055-.129-.111-.2-.178-.051-.051-.1-.105-.145-.159l-.014-.017c-.051-.061-.109-.128-.17-.187-.177-.178-.362-.354-.541-.524l-.014-.013c-.177-.17-.361-.345-.539-.522-.041-.041-.091-.1-.153-.17-.186-.214-.437-.5-.631-.523a.2.2,0,0,0-.106-.029c-.194,0-.423.239-.533.354-.015.017-.027.029-.036.038l-.7.688-.4.39c-.029.028-.064.07-.1.11-.11.128-.248.287-.36.311a.516.516,0,0,0-.221-.067.72.72,0,0,1-.18-.041,4.645,4.645,0,0,1-.693-.4,13.583,13.583,0,0,1-2.9-2.775c-.087-.116-.179-.228-.277-.346l0-.006a2.873,2.873,0,0,1-.778-1.456,2.689,2.689,0,0,0,.468-.45l.014-.016c.068-.076.131-.147.194-.21.083-.083.175-.174.29-.285l.012-.012c.248-.243.5-.494.738-.763H1350a.68.68,0,0,0,.109-.51.257.257,0,0,1-.068-.1.431.431,0,0,0-.041-.068,2.735,2.735,0,0,0-.322-.332l-.009-.008c-.055-.051-.112-.1-.161-.152l-.468-.457q-.5-.485-.992-.967c-.064-.064-.128-.14-.179-.2a1.154,1.154,0,0,0-.935-.531Z" transform="translate(-1344.352 -9850.22)"/></svg>